<svg width="30" height="34" viewBox="0 0 30 34" fill="none" xmlns="http://www.w3.org/2000/svg">
<path d="M1.73629 24.6753C1.34392 24.896 1.34392 25.461 1.73629 25.6817L14.2873 32.7417C14.9903 33.1371 15.8487 33.1371 16.5517 32.7417L29.9973 25.1785L15.4195 16.9785L1.73629 24.6753Z" fill="#636AE8"/>
<path d="M29.9973 8.82212L16.5517 1.25898C15.8487 0.863544 14.9903 0.86354 14.2873 1.25898L1.73633 8.31893C1.34392 8.53963 1.34392 9.10461 1.73629 9.32531L15.4195 17.0221L29.9973 8.82212Z" fill="#E8618C"/>
<path d="M1.0667 10.675C0.68513 10.5071 0.256836 10.7866 0.256836 11.2035V22.7968C0.256836 23.2137 0.68513 23.4932 1.0667 23.3253L15.442 17.0001L1.0667 10.675Z" fill="#22CCB2"/>
</svg>
